<?xml version="1.0" standalone="no"?>
<!DOCTYPE svg PUBLIC "-//W3C//DTD SVG 20010904//EN"
 "http://www.w3.org/TR/2001/REC-SVG-20010904/DTD/svg10.dtd">
<svg version="1.0" xmlns="http://www.w3.org/2000/svg"
 width="2688.000000pt" height="1536.000000pt" viewBox="0 0 2688.000000 1536.000000"
 preserveAspectRatio="xMidYMid meet">

<g transform="translate(0.000000,1536.000000) scale(0.100000,-0.100000)"
fill="#000000" stroke="none">
<path d="M0 7680 l0 -7680 13440 0 13440 0 0 7680 0 7680 -13440 0 -13440 0 0
-7680z m17430 2751 c398 -21 632 -58 870 -137 434 -144 766 -411 973 -784 230
-415 285 -972 142 -1444 -194 -639 -693 -1118 -1340 -1284 -242 -62 -429 -82
-840 -90 l-320 -7 0 -610 c0 -673 1 -689 64 -822 71 -150 189 -209 518 -260
30 -5 32 -8 27 -32 -4 -14 -9 -28 -11 -31 -2 -2 -515 -6 -1139 -8 -1196 -5
-1164 -6 -1164 39 0 28 30 36 190 48 375 28 527 128 586 386 17 76 18 182 19
2220 l0 2140 -28 100 c-38 137 -87 233 -157 308 -69 74 -138 117 -240 151 -77
25 -259 56 -330 56 -37 0 -40 2 -40 29 0 16 5 31 10 33 30 10 2019 9 2210 -1z
m-7430 -11 c369 -16 643 -61 878 -141 389 -134 698 -358 944 -686 155 -206
274 -452 334 -685 26 -103 33 -137 59 -298 36 -224 58 -784 34 -888 -5 -23
-11 -72 -14 -109 -9 -141 -42 -353 -55 -353 -13 0 -17 57 -5 74 7 9 11 39 9
71 -2 31 0 54 4 51 4 -2 8 17 10 42 6 89 9 109 16 121 13 21 26 520 14 527 -3
2 -3 17 2 33 4 16 6 32 3 35 -7 6 -14 71 -17 141 -1 35 -5 49 -14 47 -9 -2
-11 2 -4 14 11 20 4 60 -14 74 -7 6 -11 17 -8 23 3 8 -7 12 -25 12 -16 0 -27
-3 -25 -7 2 -3 -2 -8 -8 -11 -8 -3 -2 -9 13 -17 26 -12 33 -40 11 -48 -6 -2
-8 5 -5 16 3 12 -1 19 -11 19 -9 0 -16 -5 -16 -10 0 -6 -3 -8 -6 -4 -3 3 -16
-3 -27 -14 -23 -21 -31 -85 -13 -108 8 -11 8 -13 0 -8 -14 8 -35 -14 -37 -40
-1 -26 -54 -25 -69 0 -8 15 -5 23 13 40 13 12 27 22 31 22 5 0 8 4 7 9 0 5 5
12 11 16 8 5 4 9 -9 13 -12 3 -19 2 -16 -3 10 -15 -25 -19 -40 -4 -9 10 -15
11 -15 4 0 -7 -7 -9 -16 -6 -9 3 -12 2 -9 -5 4 -6 13 -8 20 -5 7 2 21 -2 32
-10 16 -13 15 -14 -14 -9 -21 3 -33 1 -33 -6 0 -8 -4 -8 -15 1 -8 7 -13 16
-10 19 2 4 -2 8 -10 8 -13 0 -13 -3 -1 -16 7 -9 11 -23 9 -31 -4 -12 -3 -12 5
-2 7 11 10 10 14 -5 4 -13 0 -19 -13 -19 -10 0 -16 3 -14 6 2 4 -3 19 -11 34
-7 16 -14 38 -14 50 -1 19 -2 19 -11 3 -5 -9 -7 -22 -4 -27 3 -6 1 -10 -4 -10
-6 0 -11 5 -11 12 0 9 -3 9 -12 0 -10 -10 -10 -15 2 -22 9 -6 10 -10 3 -10 -7
0 -17 8 -23 18 -8 14 -9 12 -4 -10 5 -23 3 -28 -12 -27 -11 0 -14 3 -6 6 6 2
10 9 6 14 -3 5 -13 5 -25 -1 -13 -7 -19 -7 -19 0 0 5 6 10 14 10 14 0 33 56
23 67 -3 2 -15 -5 -27 -17 -22 -22 -80 -45 -80 -32 0 4 4 14 10 22 6 9 5 17
-3 22 -20 13 -30 9 -17 -7 11 -13 11 -18 0 -28 -10 -10 -12 -9 -7 5 3 9 0 19
-9 22 -8 3 -14 1 -14 -5 0 -6 -5 -7 -10 -4 -8 5 -8 11 0 20 8 9 8 15 1 20 -6
3 -16 16 -21 28 -10 22 -10 22 6 0 17 -24 34 -30 34 -12 0 5 -4 8 -8 5 -11 -7
-45 71 -37 84 3 5 -5 14 -18 19 -29 11 -34 23 -32 74 1 26 -1 35 -9 27 -5 -5
-21 -10 -34 -10 -18 0 -22 -3 -14 -12 6 -7 10 -24 10 -38 0 -31 11 -196 15
-211 1 -6 -3 -13 -10 -16 -7 -3 -14 10 -18 34 -3 21 -18 90 -32 153 -109 490
-349 796 -756 964 -179 75 -342 100 -720 112 l-218 6 2 -2111 2 -2111 26 -1
26 -2 -27 -4 -28 -4 0 -234 0 -234 -167 -4 c-203 -4 -1154 -4 -1415 1 l-188 3
0 39 c0 45 -11 40 125 46 110 4 185 13 234 28 28 8 51 13 51 11 0 -8 158 57
207 87 192 114 306 337 333 653 6 76 10 751 10 1825 0 1823 0 1826 -50 2048
-40 184 -123 365 -211 465 -55 62 -171 146 -229 166 -56 19 -274 51 -348 51
-74 0 -107 15 -97 42 4 9 14 19 23 21 35 9 1756 6 1962 -3z m1517 -1835 c0 -8
-4 -12 -9 -9 -5 3 -6 10 -3 15 9 13 12 11 12 -6z m73 -39 c0 -11 -19 -15 -25
-6 -3 5 1 10 9 10 9 0 16 -2 16 -4z m526 -108 c4 -6 3 -8 -4 -4 -6 3 -13 2
-17 -4 -3 -5 -14 -10 -23 -10 -15 1 -15 2 2 15 24 18 33 19 42 3z m-10 -52
c11 -23 10 -24 -7 -13 -11 7 -19 17 -19 24 0 21 14 15 26 -11z m-342 5 c3 -5
-1 -14 -8 -20 -12 -10 -13 -8 -9 8 6 23 9 25 17 12z m106 -62 c0 -10 -3 -19
-7 -20 -5 0 -15 -2 -24 -4 -9 -1 -16 3 -16 11 0 10 4 11 13 3 8 -6 14 -6 18 0
3 5 1 11 -6 13 -6 2 -8 10 -4 16 10 17 26 5 26 -19z m-149 12 c-8 -5 -10 -14
-6 -22 6 -11 5 -11 -5 -2 -14 12 -6 33 13 33 8 0 7 -3 -2 -9z m230 0 c5 8 9 9
9 3 0 -18 -27 -37 -35 -24 -3 5 -3 15 1 22 6 9 9 9 12 -1 4 -11 6 -11 13 0z
m-434 -43 c2 -17 0 -19 -7 -8 -5 8 -6 18 -4 22 8 12 10 10 11 -14z m552 8 c11
-14 6 -15 -27 -7 -4 1 8 21 12 21 2 0 9 -6 15 -14z m-99 -53 c0 -2 -9 1 -20 7
-19 10 -24 6 -21 -13 1 -5 -3 -6 -8 -3 -7 5 -8 21 -2 44 1 4 51 -30 51 -35z
m-160 23 c0 -3 -4 -8 -10 -11 -5 -3 -10 -1 -10 4 0 6 5 11 10 11 6 0 10 -2 10
-4z m-280 -12 c0 -8 -19 -13 -24 -6 -3 5 1 9 9 9 8 0 15 -2 15 -3z m370 -24
c0 -4 -7 -7 -15 -6 -23 3 -26 12 -5 13 11 1 20 -2 20 -7z m110 -6 c0 -8 -19
-13 -24 -6 -3 5 1 9 9 9 8 0 15 -2 15 -3z m-480 -99 c0 -8 -2 -15 -4 -15 -2 0
-6 7 -10 15 -3 8 -1 15 4 15 6 0 10 -7 10 -15z m-12 -320 c-3 -3 -9 2 -12 12
-6 14 -5 15 5 6 7 -7 10 -15 7 -18z m-12 -83 c-12 -11 -18 7 -10 30 l8 23 4
-23 c2 -13 1 -26 -2 -30z m-10 -59 c-3 -17 -26 -32 -26 -16 0 8 20 33 26 33 1
0 1 -8 0 -17z m-13 -48 c-3 -9 -8 -14 -10 -11 -3 3 -2 9 2 15 9 16 15 13 8 -4z
m2 -47 c-2 -13 -7 -40 -10 -61 -5 -36 -23 -83 -30 -75 -4 5 14 138 20 148 12
19 25 10 20 -12z m-48 -193 c0 -8 -4 -15 -9 -15 -10 0 -11 14 -1 23 9 10 10 9
10 -8z m-24 -60 c-3 -9 -8 -14 -10 -11 -3 3 -2 9 2 15 9 16 15 13 8 -4z m-14
-61 c-6 -8 -8 -14 -3 -14 4 0 3 -5 -4 -12 -7 -7 -12 -20 -12 -30 0 -9 -11 -38
-25 -63 -14 -25 -23 -51 -19 -58 5 -9 4 -9 -5 -1 -9 8 -9 18 -1 40 6 16 11 31
11 34 0 3 6 14 13 25 6 11 18 39 26 62 7 23 17 40 22 37 5 -3 4 -12 -3 -20z
m773 -65 c-8 -27 -11 -30 -17 -16 -10 24 3 73 16 60 7 -7 7 -22 1 -44z m-12
-55 c0 -8 -4 -14 -10 -14 -5 0 -10 9 -10 21 0 11 5 17 10 14 6 -3 10 -13 10
-21z m-10 -34 c0 -5 -5 -10 -11 -10 -5 0 -7 5 -4 10 3 6 8 10 11 10 2 0 4 -4
4 -10z m-10 -41 c0 -5 -4 -9 -10 -9 -5 0 -10 7 -10 16 0 8 5 12 10 9 6 -3 10
-10 10 -16z m-824 -8 c0 -11 -3 -18 -6 -16 -7 4 -35 -65 -32 -77 1 -5 -2 -8
-6 -8 -5 0 -19 -19 -32 -42 -13 -24 -27 -45 -30 -48 -12 -8 -41 -70 -33 -70 4
0 -9 -15 -28 -34 -18 -18 -40 -41 -47 -50 -7 -9 -19 -13 -25 -9 -7 4 -5 -2 3
-12 8 -10 11 -16 5 -13 -5 3 -16 0 -23 -8 -7 -8 -10 -14 -7 -14 8 0 -11 -19
-61 -57 -23 -18 -45 -29 -49 -25 -5 4 -5 2 -1 -5 4 -7 -3 -17 -16 -24 -12 -6
-31 -20 -42 -30 -35 -33 -155 -101 -166 -94 -5 3 -10 2 -10 -4 0 -12 -79 -55
-87 -47 -3 3 -12 -2 -20 -10 -9 -8 -22 -13 -29 -10 -8 3 -14 1 -14 -5 0 -6 -5
-7 -11 -3 -8 5 -6 10 5 16 10 6 20 7 23 4 3 -3 12 2 20 10 9 8 21 13 28 10 8
-3 16 2 19 11 4 8 13 13 21 9 8 -3 15 -1 15 4 0 12 56 41 64 33 3 -4 6 -2 6 4
0 6 12 18 26 28 18 11 24 12 18 4 -4 -8 7 1 25 19 18 17 37 30 42 26 5 -3 9
-1 9 4 0 4 29 32 64 62 85 69 185 188 274 324 40 60 72 111 72 113 0 4 31 53
34 53 1 0 2 -9 2 -19z m814 -21 c0 -5 -2 -10 -4 -10 -3 0 -8 5 -11 10 -3 6 -1
10 4 10 6 0 11 -4 11 -10z m-10 -30 c0 -5 -5 -10 -11 -10 -5 0 -7 5 -4 10 3 6
8 10 11 10 2 0 4 -4 4 -10z m-24 -66 c-3 -9 -6 -20 -6 -25 0 -6 -4 -8 -9 -5
-12 8 -2 46 11 46 6 0 7 -7 4 -16z m-25 -57 c-6 -8 -7 -18 -3 -22 4 -5 1 -5
-6 -1 -10 6 -10 11 -1 22 6 8 14 14 16 14 3 0 0 -6 -6 -13z m-24 -69 c-3 -8
-6 -5 -6 6 -1 11 2 17 5 13 3 -3 4 -12 1 -19z m-1512 -478 c3 -5 2 -10 -4 -10
-5 0 -13 5 -16 10 -3 6 -2 10 4 10 5 0 13 -4 16 -10z m-29 -12 c5 -7 2 -9 -9
-5 -9 3 -17 1 -19 -5 -3 -7 -10 -8 -18 -3 -11 7 -10 10 6 16 27 11 32 10 40
-3z m-61 -18 c3 -5 2 -10 -4 -10 -5 0 -13 5 -16 10 -3 6 -2 10 4 10 5 0 13 -4
16 -10z m-35 -10 c0 -5 -4 -10 -9 -10 -6 0 -13 5 -16 10 -3 6 1 10 9 10 9 0
16 -4 16 -10z m-40 -10 c0 -13 -11 -13 -30 0 -12 8 -11 10 8 10 12 0 22 -4 22
-10z m-50 -10 c12 -8 12 -10 -5 -10 -11 0 -27 5 -35 10 -12 8 -12 10 5 10 11
0 27 -5 35 -10z m-61 -9 c9 -6 0 -10 -28 -13 -27 -2 -42 1 -45 9 -6 15 51 18
73 4z m-89 -11 c19 -12 -66 -12 -95 0 -15 6 -7 9 30 9 28 0 57 -4 65 -9z
m-140 -10 c-20 -13 -197 -13 -205 0 -4 6 34 10 107 10 77 0 108 -3 98 -10z
m1430 -263 c0 -2 -10 -12 -22 -23 l-23 -19 19 23 c18 21 26 27 26 19z m-140
-111 c0 -2 -8 -10 -17 -17 -16 -13 -17 -12 -4 4 13 16 21 21 21 13z m-230
-151 c0 -2 -10 -9 -22 -15 -22 -11 -22 -10 -4 4 21 17 26 19 26 11z m-200
-105 c-8 -5 -19 -10 -25 -10 -5 0 -3 5 5 10 8 5 20 10 25 10 6 0 3 -5 -5 -10z
m-210 -80 c-8 -5 -22 -9 -30 -9 -10 0 -8 3 5 9 27 12 43 12 25 0z m-83 -26
c-3 -3 -12 -4 -19 -1 -8 3 -5 6 6 6 11 1 17 -2 13 -5z m-52 -14 c-25 -11 -58
-12 -52 -2 3 4 20 8 39 9 26 1 29 0 13 -7z m-70 -10 c3 -5 -1 -10 -9 -10 -9 0
-16 5 -16 10 0 6 4 10 9 10 6 0 13 -4 16 -10z m-41 -9 c10 -16 -238 -47 -454
-56 -95 -4 -140 -3 -131 3 8 6 45 9 82 8 38 -1 70 1 71 6 2 4 50 10 108 13 58
3 146 12 195 19 114 17 123 18 129 7z"/>
<path d="M16974 9643 l-61 -4 -7 -77 c-8 -103 -8 -1508 0 -1835 l7 -257 381 6
c231 3 422 11 486 19 377 50 618 223 724 523 57 159 70 257 70 507 0 258 -12
353 -66 510 -98 288 -251 446 -514 534 -130 44 -218 60 -378 71 -132 9 -504
11 -642 3z"/>
<path d="M11476 8714 c-4 -10 -2 -13 6 -8 7 5 9 2 6 -8 -4 -8 -2 -21 3 -29 6
-10 9 -2 7 24 -2 39 -12 48 -22 21z"/>
<path d="M11513 8695 c0 -8 4 -12 9 -9 5 3 6 10 3 15 -9 13 -12 11 -12 -6z"/>
<path d="M11560 8585 c0 -8 4 -15 8 -15 5 0 9 7 9 15 0 8 -4 15 -9 15 -4 0 -8
-7 -8 -15z"/>
<path d="M11666 8483 c-6 -14 -5 -15 5 -6 7 7 10 15 7 18 -3 3 -9 -2 -12 -12z"/>
<path d="M11696 8457 c3 -10 9 -15 12 -12 3 3 0 11 -7 18 -10 9 -11 8 -5 -6z"/>
<path d="M11985 8460 c-3 -5 -1 -10 4 -10 6 0 11 5 11 10 0 6 -2 10 -4 10 -3
0 -8 -4 -11 -10z"/>
<path d="M11670 8442 c6 -13 14 -21 18 -18 3 4 -2 14 -12 24 -18 16 -18 16 -6
-6z"/>
<path d="M11715 8430 c-10 -11 -16 -22 -14 -24 2 -2 12 7 22 20 22 29 17 32
-8 4z"/>
<path d="M11965 8420 c-3 -5 -1 -10 4 -10 6 0 11 5 11 10 0 6 -2 10 -4 10 -3
0 -8 -4 -11 -10z"/>
<path d="M11710 8390 c-9 -6 -10 -10 -3 -10 6 0 15 5 18 10 8 12 4 12 -15 0z"/>
<path d="M12030 8352 c0 -14 -4 -21 -11 -17 -12 8 -49 -23 -49 -41 0 -18 43
-12 48 7 3 8 11 21 18 29 9 10 10 20 4 30 -8 12 -10 10 -10 -8z m-11 -25 c-2
-1 -13 -9 -24 -17 -19 -14 -19 -14 -6 3 7 9 18 17 24 17 6 0 8 -1 6 -3z"/>
<path d="M8525 5050 c-3 -5 -1 -10 4 -10 6 0 11 5 11 10 0 6 -2 10 -4 10 -3 0
-8 -4 -11 -10z"/>
<path d="M8396 5017 c3 -10 9 -15 12 -12 3 3 0 11 -7 18 -10 9 -11 8 -5 -6z"/>
<path d="M8468 5018 c-7 -17 15 -19 29 -3 4 4 3 5 -4 2 -6 -4 -13 -2 -15 5 -3
8 -6 6 -10 -4z"/>
</g>
</svg>
